<svg xmlns="http://www.w3.org/2000/svg" width="18" height="18" viewBox="0 0 18 18">
    <g fill="none" fill-rule="evenodd">
        <g fill="#5C3327" fill-rule="nonzero">
            <g>
                <g>
                    <g>
                        <g>
                            <g>
                                <path d="M9 18.969c4.816 0 8.719-3.903 8.719-8.719 0-4.816-3.903-8.719-8.719-8.719-4.816 0-8.719 3.903-8.719 8.719 0 4.816 3.903 8.719 8.719 8.719zm0-1.688c-3.885 0-7.031-3.146-7.031-7.031S5.115 3.219 9 3.219s7.031 3.146 7.031 7.031S12.885 17.281 9 17.281zm2.763-3.761l.661-.911c.137-.19.099-.454-.091-.59l-2.349-1.71V5.33c0-.233-.19-.423-.422-.423H8.437c-.232 0-.421.19-.421.422v5.773c0 .133.063.26.172.34l2.985 2.17c.19.137.453.095.59-.091z" transform="translate(-348 -5430) translate(80 5121) translate(174 179) translate(0 1) translate(24 127.65) translate(70)"/>
                            </g>
                        </g>
                    </g>
                </g>
            </g>
        </g>
    </g>
</svg>
