<svg xmlns="http://www.w3.org/2000/svg" width="18" height="18" viewBox="0 0 18 18">
    <g fill="none" fill-rule="evenodd">
        <g fill="#5C3327" fill-rule="nonzero">
            <g>
                <g>
                    <g>
                        <g>
                            <g>
                                <path d="M8.719 18.969c4.816 0 8.718-3.903 8.718-8.719 0-4.816-3.902-8.719-8.718-8.719C3.902 1.531 0 5.434 0 10.25c0 4.816 3.902 8.719 8.719 8.719zm5.72-4.644c-.858-1.104-2.184-1.825-3.695-1.825-.359 0-.914.337-2.025.337-1.108 0-1.667-.337-2.025-.337-1.508 0-2.834.72-3.695 1.825-.823-1.15-1.312-2.556-1.312-4.075 0-3.878 3.154-7.031 7.032-7.031 3.877 0 7.031 3.153 7.031 7.031 0 1.519-.489 2.925-1.311 4.075zm-5.72-2.669c1.863 0 3.375-1.511 3.375-3.375 0-1.863-1.512-3.375-3.375-3.375-1.864 0-3.375 1.512-3.375 3.375 0 1.864 1.511 3.375 3.375 3.375zm0-1.687c-.932 0-1.688-.756-1.688-1.688 0-.931.756-1.687 1.688-1.687.931 0 1.687.756 1.687 1.687 0 .932-.756 1.688-1.687 1.688zm0 7.312c-1.748 0-3.344-.643-4.574-1.701.524-.809 1.42-1.357 2.447-1.389.731.225 1.427.338 2.127.338.7 0 1.395-.11 2.127-.338 1.026.035 1.923.58 2.447 1.389-1.23 1.058-2.827 1.701-4.574 1.701z" transform="translate(-348 -5462) translate(80 5121) translate(174 179) translate(0 1) translate(24 159.65) translate(70)"/>
                            </g>
                        </g>
                    </g>
                </g>
            </g>
        </g>
    </g>
</svg>
